<svg xmlns="http://www.w3.org/2000/svg" width="1000" height="1000" viewBox="0 0 1000 1000">
  <defs>
    <style>
      .cls-1 {
        fill: #fff;
        fill-rule: evenodd;
        opacity: 0.5;
      }
    </style>
  </defs>
  <path id="Shape_1_copy_6" data-name="Shape 1 copy 6" class="cls-1" d="M928.808,417.546c-13.668,52.763-75.3,63.023-80.056,63.023-37.953-58.626,0-184.185-121.548-319.515C669.114,86.306,537.315,60.9,499.728,60.412,782.364,48.2,945.893,308.109,928.808,417.546ZM379.155,503.531L138.987,484.478S127.22,201.519,398.193,101.939c-263.28,41.054-294.352,372.279-294.352,372.279s-33.706,1.243-42.469,2.931C99.448,86.236,469.727,35.982,551.471,97.542,462.23,206.242,379.155,503.531,379.155,503.531Zm-247.49,183.7c-36.6,8.292-38.075-4.886-38.075-4.886S49.657,594.4,59.42,500.111l40.516,9.283S91.628,547.025,131.665,687.228Zm242.609-145.1c-8.289,171.116,8.3,282.873,8.3,282.873S241,799.6,193.66,752.205s-59.554-232.063-59.554-236.46C197.086,511.959,304.948,544.936,374.274,542.127Z"/>
</svg>
